<svg width="160" height="54" viewBox="0 0 160 54" fill="none" xmlns="http://www.w3.org/2000/svg">
<path fill-rule="evenodd" clip-rule="evenodd" d="M155.151 34.9719C155.154 35.258 155.14 35.5624 155.11 35.8959C155.079 36.2261 155.032 36.5693 154.957 36.9274L152.955 47.2983H148.352L149.879 39.397C149.993 38.8108 150.077 38.3128 150.141 37.8954C150.202 37.4792 150.231 37.092 150.227 36.7284C150.219 36.1143 150.076 35.6689 149.797 35.3828C149.513 35.0967 149.004 34.9569 148.262 34.9569C147.898 34.9569 147.481 35.0451 147.013 35.2182C146.544 35.3925 146.018 35.6593 145.431 36.0067L143.249 47.2973H138.671L141.762 31.3687H146.339L145.992 33.1263C146.917 32.439 147.765 31.8957 148.532 31.5096C149.301 31.1224 150.142 30.9277 151.07 30.9277C152.343 30.9277 153.339 31.2708 154.054 31.9646C154.77 32.6584 155.135 33.6597 155.151 34.9719Z" fill="#787F82"/>
<path fill-rule="evenodd" clip-rule="evenodd" d="M138.432 31.3696L135.74 45.4675C135.446 46.9831 135.017 48.2361 134.454 49.2386C133.897 50.2421 133.206 51.0402 132.399 51.6361C131.564 52.2503 130.655 52.6826 129.669 52.9289C128.689 53.1752 127.582 53.2968 126.352 53.2968C125.329 53.2968 124.354 53.229 123.416 53.0946C122.478 52.9537 121.691 52.7988 121.046 52.6202L121.695 48.7029H122.251C122.954 49.0073 123.663 49.245 124.383 49.4246C125.101 49.6086 125.74 49.6957 126.297 49.6957C127.096 49.6957 127.788 49.6129 128.378 49.4494C128.967 49.2848 129.426 49.0428 129.76 48.733C130.118 48.4028 130.402 47.9963 130.612 47.5123C130.822 47.0282 130.989 46.4377 131.119 45.7407L131.174 45.4406C130.525 45.9451 129.877 46.342 129.23 46.6313C128.586 46.926 127.855 47.0723 127.035 47.0723C125.443 47.0723 124.197 46.6217 123.288 45.7257C122.38 44.8254 121.916 43.469 121.894 41.6545C121.859 38.5224 122.614 35.956 124.169 33.9468C125.722 31.9376 127.621 30.9297 129.871 30.9297C130.678 30.9297 131.417 31.0416 132.08 31.2599C132.743 31.4729 133.281 31.7483 133.69 32.0785L133.996 31.3718H138.432V31.3696ZM133.143 35.059C132.896 34.9342 132.57 34.8158 132.172 34.7104C131.77 34.5986 131.415 34.547 131.113 34.547C129.759 34.547 128.673 35.1181 127.859 36.2657C127.046 37.4091 126.651 38.8805 126.672 40.6768C126.681 41.4899 126.866 42.1246 127.224 42.5742C127.583 43.0302 128.223 43.2582 129.143 43.2582C129.587 43.2582 130.039 43.1614 130.493 42.9668C130.953 42.7732 131.381 42.5451 131.785 42.2784L133.143 35.059Z" fill="#787F82"/>
<path fill-rule="evenodd" clip-rule="evenodd" d="M122.391 25.2266L121.638 29.0988H116.81L117.563 25.2266H122.391Z" fill="#787F82"/>
<path fill-rule="evenodd" clip-rule="evenodd" d="M121.286 31.3691L118.186 47.2977H113.61L116.713 31.3691H121.286Z" fill="#787F82"/>
<path fill-rule="evenodd" clip-rule="evenodd" d="M104.675 47.739C103.465 47.739 102.284 47.6078 101.142 47.3561C100.005 47.1011 99.1298 46.7989 98.5176 46.4611L99.3399 42.2631H99.7579C99.9458 42.4427 100.18 42.6417 100.464 42.8601C100.75 43.0773 101.154 43.3043 101.679 43.542C102.13 43.7603 102.651 43.9442 103.239 44.0991C103.833 44.2594 104.472 44.3369 105.153 44.3369C106.171 44.3369 106.933 44.2013 107.444 43.941C107.95 43.6743 108.2 43.2957 108.194 42.802C108.189 42.4244 108.005 42.1394 107.64 41.9404C107.276 41.7414 106.523 41.4951 105.379 41.2004C103.446 40.7013 102.117 40.0968 101.398 39.3848C100.678 38.6792 100.31 37.7929 100.298 36.7313C100.276 34.9361 100.977 33.5228 102.398 32.4859C103.818 31.4501 105.752 30.9316 108.195 30.9316C109.255 30.9316 110.318 31.0532 111.382 31.2952C112.447 31.5383 113.231 31.7943 113.731 32.0696L112.945 36.0988H112.552C111.948 35.5761 111.222 35.1545 110.372 34.8243C109.518 34.4994 108.65 34.336 107.757 34.336C106.786 34.336 106.046 34.4661 105.531 34.7274C105.018 34.9888 104.758 35.3857 104.763 35.9235C104.768 36.3397 104.996 36.6592 105.447 36.883C105.893 37.1045 106.6 37.3325 107.564 37.5702C109.356 38.0059 110.648 38.5523 111.444 39.2159C112.242 39.8785 112.647 40.8035 112.658 41.9953C112.679 43.7711 111.971 45.1758 110.533 46.2019C109.096 47.2259 107.143 47.739 104.675 47.739Z" fill="#787F82"/>
<path fill-rule="evenodd" clip-rule="evenodd" d="M89.7671 47.7247C87.3468 47.7247 85.4733 47.1234 84.1465 45.9241C82.8176 44.7227 82.1421 43.0619 82.1168 40.9409C82.0999 39.4985 82.3014 38.1668 82.7141 36.9568C83.1311 35.7467 83.7359 34.6873 84.5371 33.7666C85.3034 32.876 86.2607 32.1736 87.4186 31.6552C88.5744 31.1325 89.8474 30.8711 91.2364 30.8711C93.3549 30.8711 94.9528 31.3551 96.0379 32.3135C97.123 33.2729 97.6792 34.6873 97.7003 36.5599C97.7077 37.2042 97.6592 37.8334 97.5494 38.4487C97.4439 39.0628 97.3013 39.6738 97.1219 40.2783H86.5837C86.5837 40.3374 86.5837 40.3901 86.5858 40.4375C86.5858 40.4912 86.5858 40.544 86.5879 40.602C86.6006 41.7099 86.9553 42.5714 87.6519 43.1964C88.3507 43.8213 89.4104 44.1354 90.8353 44.1354C91.8307 44.1354 92.769 43.946 93.6535 43.5642C94.538 43.1867 95.3054 42.7661 95.9609 42.3058H96.4665L95.6685 46.4028C94.7882 46.8384 93.8604 47.1675 92.883 47.3901C91.9098 47.6128 90.8669 47.7247 89.7671 47.7247ZM93.1184 37.2848C93.1416 37.1106 93.1616 36.9558 93.17 36.8149C93.1806 36.675 93.188 36.5244 93.1869 36.3749C93.1764 35.6296 92.9643 35.0573 92.5463 34.6604C92.1315 34.2635 91.5329 34.0645 90.7571 34.0645C89.8209 34.0645 89.0389 34.3452 88.4108 34.9121C87.7786 35.4832 87.3099 36.2727 86.988 37.2838H93.1184V37.2848Z" fill="#787F82"/>
<path fill-rule="evenodd" clip-rule="evenodd" d="M80.8027 34.419C80.8302 36.8111 80.2961 39.0183 79.1973 41.0415C78.1038 43.0658 76.6852 44.6146 74.9425 45.6935C73.8881 46.3388 72.7839 46.7637 71.6355 46.9767C70.4808 47.1886 69.1024 47.2961 67.4927 47.2961H60.6804L64.7843 26.1777H70.8756C72.67 26.1777 74.117 26.3327 75.2158 26.6435C76.3156 26.9576 77.2055 27.3792 77.8832 27.9062C78.8205 28.6279 79.5329 29.524 80.0333 30.5931C80.5304 31.6698 80.7869 32.9422 80.8027 34.419ZM75.7278 34.9127C75.7152 33.949 75.5462 33.1218 75.2201 32.4238C74.8928 31.7321 74.3989 31.1707 73.7339 30.7448C73.43 30.5555 73.1164 30.4092 72.8008 30.3135C72.4852 30.2113 72.1211 30.1392 71.7168 30.0908C71.3316 30.052 70.8872 30.037 70.3911 30.037C69.8898 30.037 69.4591 30.037 69.0886 30.037H68.925L66.2978 43.4239H66.7412C67.2299 43.4239 67.7513 43.4239 68.3076 43.4239C68.8638 43.4239 69.3176 43.4003 69.6617 43.3562C70.1051 43.3078 70.5051 43.2303 70.8618 43.1292C71.2196 43.0216 71.6144 42.8474 72.0387 42.6011C73.2473 41.9052 74.1667 40.8586 74.801 39.4689C75.4396 38.0792 75.7458 36.5595 75.7278 34.9127Z" fill="#787F82"/>
<path fill-rule="evenodd" clip-rule="evenodd" d="M54.0008 47.6075C52.426 47.6075 51.2956 47.3171 50.6169 46.7363C49.934 46.1544 49.5857 45.2929 49.573 44.1506C49.5698 43.8462 49.5878 43.5547 49.6279 43.2696C49.668 42.9846 49.7155 42.6555 49.781 42.2769L51.2333 34.7294H49.3651L50.0205 31.3692H51.892L52.7712 26.8184H57.3363L56.4518 31.3692H60.7234L60.068 34.7294H55.7963L54.6891 40.4763C54.6089 40.8732 54.5349 41.2701 54.4621 41.6713C54.3882 42.0735 54.3577 42.4167 54.3608 42.7028C54.3672 43.2686 54.5117 43.6666 54.7978 43.8849C55.0806 44.1076 55.5177 44.2194 56.1088 44.2194C56.3463 44.2194 56.6513 44.171 57.0344 44.0688C57.4176 43.972 57.7216 43.8612 57.9496 43.7397H58.3285L57.6603 47.1579C57.1453 47.2977 56.607 47.4086 56.038 47.4925C55.4702 47.5688 54.7904 47.6075 54.0008 47.6075Z" fill="#A81D21"/>
<path fill-rule="evenodd" clip-rule="evenodd" d="M44.0626 31.3696H47.5795L46.9367 34.7298H43.5717L41.1293 47.2981H36.5515L38.9982 34.7298H37.0529L37.6946 31.3696H39.64L39.7266 30.9576C40.0886 29.0409 40.7831 27.5781 41.7985 26.5821C42.8139 25.5839 44.3296 25.0859 46.3414 25.0859C47.0824 25.0859 47.7295 25.1085 48.2794 25.1623C48.8283 25.2161 49.2989 25.2827 49.6968 25.3699L48.9918 28.9732H48.6519C48.4556 28.8957 48.1801 28.8172 47.8212 28.7355C47.4623 28.658 47.1289 28.6193 46.8281 28.6193C45.9868 28.6193 45.3767 28.8032 44.9978 29.1722C44.6168 29.54 44.3159 30.237 44.0889 31.2578L44.0626 31.3696Z" fill="#A81D21"/>
<path fill-rule="evenodd" clip-rule="evenodd" d="M34.8943 37.1991C34.9112 38.6941 34.7022 40.0935 34.2737 41.396C33.8409 42.7029 33.2277 43.8215 32.4266 44.7605C31.598 45.7328 30.6269 46.4847 29.5239 47.0074C28.4167 47.5291 27.1215 47.7959 25.6375 47.7959C23.5223 47.7959 21.8936 47.2247 20.7505 46.091C19.6116 44.9584 19.0279 43.3848 19.0058 41.381C18.9889 39.9634 19.1852 38.6167 19.5884 37.3378C19.9969 36.0643 20.6048 34.9371 21.4218 33.9637C22.2092 33.0085 23.1834 32.2545 24.3466 31.7016C25.5055 31.1488 26.8133 30.8691 28.2625 30.8691C30.3862 30.8691 32.0149 31.4306 33.1538 32.5535C34.2927 33.6743 34.8711 35.2232 34.8943 37.1991ZM29.0394 42.4179C29.4205 41.7553 29.7055 41.0335 29.8955 40.2483C30.0834 39.4642 30.172 38.5112 30.1594 37.3829C30.1467 36.4095 29.9492 35.6588 29.564 35.136C29.1787 34.6079 28.5718 34.3465 27.7475 34.3465C27.1047 34.3465 26.5452 34.5219 26.066 34.8747C25.5826 35.2232 25.1625 35.7169 24.7973 36.3612C24.4595 36.9571 24.1968 37.6971 24.0078 38.5747C23.82 39.4546 23.7312 40.356 23.7418 41.2853C23.7544 42.3706 23.9793 43.1492 24.4163 43.6204C24.849 44.0839 25.4433 44.3217 26.1937 44.3217C26.7426 44.3217 27.2661 44.1517 27.7664 43.8172C28.2667 43.4784 28.6932 43.0137 29.0394 42.4179Z" fill="#A81D21"/>
<path fill-rule="evenodd" clip-rule="evenodd" d="M7.58495 47.68C5.97635 47.68 4.54195 47.5251 3.2785 47.21C2.01611 46.9002 0.920406 46.513 0 46.0483L0.911977 40.9844H1.44192C2.32011 41.875 3.35134 42.5623 4.52613 43.0517C5.70513 43.5357 6.96754 43.7777 8.31332 43.7777C9.69392 43.7777 10.7092 43.5701 11.352 43.1485C11.998 42.7269 12.3147 42.1277 12.3052 41.3425C12.3021 41.0478 12.2471 40.7951 12.1374 40.5821C12.0318 40.3692 11.8217 40.1562 11.5167 39.9486C11.2127 39.7399 10.7969 39.5366 10.2628 39.3333C9.73501 39.1311 9.05429 38.8977 8.2141 38.6321C7.29264 38.346 6.47037 38.0404 5.73574 37.7124C5.00321 37.3779 4.37731 36.9853 3.85483 36.5314C3.33552 36.0711 2.94171 35.5332 2.66622 34.9287C2.39601 34.3232 2.25465 33.6025 2.24515 32.7593C2.22193 30.6436 3.03366 28.9495 4.68448 27.6899C6.33424 26.4261 8.60249 25.7969 11.4925 25.7969C12.8858 25.7969 14.1977 25.9228 15.4348 26.1788C16.6719 26.4304 17.7243 26.78 18.5877 27.2156L17.72 32.0762H17.2028C16.5389 31.3986 15.6649 30.8275 14.5862 30.3671C13.5064 29.9122 12.3295 29.6798 11.0566 29.6798C9.81003 29.6798 8.84636 29.882 8.16978 30.2886C7.4932 30.6952 7.15852 31.2566 7.16697 31.9784C7.17119 32.3075 7.22077 32.5839 7.32738 32.8012C7.42871 33.0196 7.6388 33.2325 7.95229 33.4412C8.22566 33.6305 8.6553 33.8327 9.23689 34.0554C9.82059 34.278 10.5056 34.506 11.293 34.7427C13.4062 35.3773 14.9207 36.1183 15.8316 36.9702C16.7426 37.8221 17.2049 38.9741 17.2218 40.4315C17.2355 41.6523 17.0065 42.7268 16.5263 43.6508C16.0492 44.5758 15.3842 45.3319 14.5324 45.9085C13.6373 46.5226 12.6166 46.9723 11.4766 47.2541C10.3325 47.5391 9.03522 47.68 7.58495 47.68Z" fill="#A81D21"/>
<path fill-rule="evenodd" clip-rule="evenodd" d="M33.1134 0L36.2978 0L33.8691 11.2002H30.6826L33.1134 0Z" fill="#787F82"/>
<path fill-rule="evenodd" clip-rule="evenodd" d="M52.7167 18.5762L52.0928 21.448H39.7169L40.3386 18.5762H52.7167Z" fill="#787F82"/>
<path fill-rule="evenodd" clip-rule="evenodd" d="M8.03885 21.3259L8.66156 18.4551H20.952L20.3291 21.3259H8.03885Z" fill="#787F82"/>
<path fill-rule="evenodd" clip-rule="evenodd" d="M48.6369 4.80078L50.4862 6.80466L40.0788 14.8308L38.2296 12.828L48.6369 4.80078Z" fill="#787F82"/>
<path fill-rule="evenodd" clip-rule="evenodd" d="M15.8948 7.17144L18.5273 5.07617L25.9327 12.7355L23.2992 14.8308L15.8948 7.17144Z" fill="#787F82"/>
<path fill-rule="evenodd" clip-rule="evenodd" d="M157.537 26.6777C157.95 26.6777 158.352 26.7853 158.748 27.0015C159.142 27.2187 159.449 27.5274 159.67 27.9308C159.889 28.3331 160 28.7536 160 29.1914C160 29.6248 159.891 30.0411 159.674 30.4402C159.457 30.8392 159.153 31.1501 158.763 31.3705C158.371 31.5921 157.963 31.7029 157.537 31.7029C157.109 31.7029 156.699 31.5921 156.309 31.3705C155.918 31.1501 155.613 30.8392 155.396 30.4402C155.177 30.0411 155.069 29.6248 155.069 29.1914C155.069 28.7536 155.178 28.3331 155.4 27.9308C155.62 27.5274 155.928 27.2187 156.323 27.0015C156.717 26.7853 157.122 26.6777 157.537 26.6777ZM157.537 27.094C157.189 27.094 156.853 27.1843 156.524 27.365C156.196 27.5457 155.94 27.8049 155.755 28.1405C155.57 28.4772 155.477 28.8279 155.477 29.1925C155.477 29.5539 155.568 29.9002 155.751 30.2326C155.933 30.5649 156.187 30.8241 156.514 31.0091C156.841 31.1952 157.181 31.2878 157.538 31.2878C157.892 31.2878 158.232 31.1952 158.56 31.0091C158.888 30.8241 159.14 30.5649 159.321 30.2326C159.503 29.9002 159.593 29.5539 159.593 29.1925C159.593 28.8279 159.501 28.4772 159.317 28.1405C159.132 27.8049 158.876 27.5457 158.548 27.365C158.219 27.1843 157.88 27.094 157.537 27.094ZM156.545 30.4993H156.973V29.3516H157.224C157.375 29.3516 157.489 29.3839 157.568 29.4452C157.679 29.5302 157.83 29.7389 158.016 30.0734L158.251 30.4993H158.775L158.451 29.9712C158.296 29.7195 158.165 29.541 158.058 29.4345C158.002 29.3786 157.926 29.3302 157.832 29.2914C158.061 29.2721 158.245 29.1903 158.382 29.0451C158.52 28.8978 158.59 28.7268 158.59 28.5288C158.59 28.389 158.549 28.2567 158.466 28.1319C158.383 28.0093 158.272 27.9211 158.133 27.8716C157.994 27.8211 157.768 27.7974 157.456 27.7974H156.544V30.4993H156.545ZM156.973 28.9784H157.494C157.74 28.9784 157.911 28.9397 158.001 28.8655C158.091 28.7902 158.137 28.6902 158.137 28.5654C158.137 28.4858 158.115 28.4137 158.071 28.3513C158.026 28.2889 157.966 28.2406 157.889 28.2094C157.811 28.1782 157.668 28.1631 157.459 28.1631H156.972V28.9784H156.973Z" fill="#787F82"/>
</svg>
